# AST/ASF file generated using VICON BodyLanguage
# -----------------------------------------------
:version 1.10
:name VICON
:units
  mass 1.0
  length 0.45
  angle deg
:documentation
   .ast/.asf automatically generated from VICON data using
   VICON BodyBuilder and BodyLanguage model FoxedUp or BRILLIANT.MOD
:root
   order TX TY TZ RX RY RZ
   axis XYZ
   position 0 0 0  
   orientation 0 0 0 
:bonedata
  begin
     id 1 
     name lhipjoint
     direction 0.575328 -0.747301 0.332475 
     length 2.40933 
     axis 0 0 0  XYZ
  end
  begin
     id 2 
     name lfemur
     direction 0.34202 -0.939693 0  
     length 7.31453  
     axis 0 0 20  XYZ
    dof rx ry rz
    limits (-160.0 20.0)
           (-70.0 70.0)
           (-60.0 70.0)
  end
  begin
     id 3 
     name ltibia
     direction 0.34202 -0.939693 0   
     length 7.82185   
     axis 0 0 20   XYZ
    dof rx
    limits (-10.0 170.0)
  end
  begin
     id 4 
     name lfoot
     direction 0.0795993 -0.218697 0.972541   
     length 2.19173   
     axis -90 7.62852e-016 20   XYZ
    dof rx rz
    limits (-45.0 90.0)
           (-70.0 20.0)
  end
  begin
     id 5 
     name ltoes
     direction 1.53537e-011 -4.21894e-011 1   
     length 1.10023   
     axis -90 7.62852e-016 20   XYZ
    dof rx
    limits (-90.0 20.0)
  end
  begin
     id 6 
     name rhipjoint
     direction -0.513884 -0.783789 0.348708   
     length 2.29716  
     axis 0 0 0  XYZ 
  end
  begin
     id 7 
     name rfemur
     direction -0.34202 -0.939693 0   
     length 7.59573   
     axis 0 0 -20   XYZ
    dof rx ry rz
    limits (-160.0 20.0)
           (-70.0 70.0)
           (-70.0 60.0)
  end
  begin
     id 8 
     name rtibia
     direction -0.34202 -0.939693 0   
     length 7.66402   
     axis 0 0 -20   XYZ
    dof rx
    limits (-10.0 170.0)
 end
 begin
     id 9 
     name rfoot
     direction -0.137793 -0.378584 0.915253   
     length 2.27056  
     axis -90 -7.62852e-016 -20   XYZ
    dof rx rz
    limits (-45.0 90.0)
           (-20.0 70.0)
  end
  begin
     id 10 
     name rtoes
     direction -1.53493e-011 -4.22159e-011 1   
     length 1.11766   
     axis -90 -7.62852e-016 -20   XYZ
    dof rx
    limits (-90.0 20.0)
  end
  begin
     id 11 
     name lowerback
     direction -0.00732775 0.998356 -0.05685   
     length 2.16513   
     axis 0 0 0   XYZ
    dof rx ry rz
    limits (-20.0 45.0)
           (-30.0 30.0)
           (-30.0 30.0)
  end
  begin
     id 12 
     name upperback
     direction 0.0218081 0.999627 -0.0164647   
     length 2.16755   
     axis 0 0 0   XYZ
    dof rx ry rz
    limits (-20.0 45.0)
           (-30.0 30.0)
           (-30.0 30.0)
  end
  begin
     id 13 
     name thorax
     direction 0.02365 0.999661 0.0108914   
     length 2.16932   
     axis 0 0 0   XYZ
    dof rx ry rz
    limits (-20.0 45.0)
           (-30.0 30.0)
           (-30.0 30.0)
  end
  begin
     id 14 
     name lowerneck
     direction -0.0523929 0.978385 0.200044   
     length 1.63877   
     axis 0 0 0   XYZ
    dof rx ry rz
    limits (-20.0 45.0)
           (-30.0 30.0)
           (-30.0 30.0)
  end
  begin
     id 15 
     name upperneck
     direction 0.0448674 0.981321 -0.187074   
     length 1.69014   
     axis 0 0 0   XYZ
    dof rx ry rz
    limits (-20.0 45.0)
           (-30.0 30.0)
           (-30.0 30.0)
  end
  begin
     id 16
     name head
     direction 0.0199089 0.996118 -0.0857429  
     length 1.70094  
     axis 0 0 0   XYZ
    dof rx ry rz
    limits (-20.0 45.0)
           (-30.0 30.0)
           (-30.0 30.0)
  end
  begin
     id 17 
     name lclavicle
     direction 0.940366 0.30191 -0.156722  
     length 3.37521  
     axis 0 0 0   XYZ
    dof ry rz
    limits (-20.0 10.0)
           (0.0 20.0)
  end
  begin
     id 18 
     name lhumerus
     direction 1 -4.4897e-011 -1.7911e-027   
     length 5.25287   
     axis 180 -30 -90   XYZ
    dof rx ry rz
    limits (-60.0 90.0)
           (-90.0 90.0)
           (-90.0 90.0)
  end
  begin
     id 19
     name lradius
     direction 1 -4.48951e-011 1.04424e-027   
     length 3.51014   
     axis 180 -30 -90   XYZ
    dof rx
    limits (-10.0 170.0)
  end
  begin
     id 20
     name lwrist
     direction 1 -4.48997e-011 -9.5942e-028   
     length 1.75507   
     axis 8.48502e-016 90 90   XYZ
    dof ry
    limits (-180.0 0.0)
 end
  begin
     id 21 
     name lhand
     direction 1 -4.48831e-011 -1.90777e-027   
     length 0.706179   
     axis 1.22306e-015 90 90   XYZ
    dof rx rz
    limits (-90.0 90.0)
           (-45.0 45.0)
  end
  begin
     id 22 
     name lfingers
     direction 1 -4.49108e-011 -3.85244e-027   
     length 0.569339   
     axis 2.44611e-015 90 90   XYZ
    dof rx
    limits (0.0 90.0)
  end
  begin
     id 23
     name lthumb
     direction 0.707107 -6.34953e-011 0.707107   
     length 0.817461   
     axis -90 45 -1.62303e-014   XYZ
    dof rx rz
    limits (-45.0 45.0)
           (-45.0 45.0)
  end
  begin
     id 24 
     name rclavicle
     direction -0.905329 0.382405 -0.184787   
     length 3.30787  
     axis 0 0 0   XYZ 
    dof ry rz
    limits (-10.0 20.0)
           (-20.0 0.0)
  end
  begin
     id 25 
     name rhumerus
     direction -1 -4.48953e-011 -9.15316e-029  
     length 5.28721   
     axis 180 30 90   XYZ
    dof rx ry rz
    limits (-90.0 60.0)
           (-90.0 90.0)
           (-90.0 90.0)
  end
  begin
     id 26 
     name rradius
     direction -1 -4.48987e-011 9.37824e-028   
     length 3.50544   
     axis 180 30 90   XYZ
    dof rx
    limits (-10.0 170.0)
  end
  begin
     id 27 
     name rwrist
     direction -1 -4.48967e-011 -9.58414e-028   
     length 1.75272   
     axis 8.48502e-016 -90 -90   XYZ
    dof ry
    limits (-180.0 0.0)
  end
  begin
     id 28
     name rhand
     direction -1 -4.48904e-011 -1.91266e-027   
     length 0.884996   
     axis 1.22306e-015 -90 -90   XYZ
    dof rx rz
    limits (-90.0 90.0)
           (-45.0 45.0)
  end
  begin
     id 29
     name rfingers
     direction -1 -4.4909e-011 -3.85015e-027   
     length 0.713507   
     axis 2.44611e-015 -90 -90   XYZ
    dof rx
    limits (0.0 90.0)
  end
  begin
     id 30
     name rthumb
     direction -0.707107 -6.34853e-011 0.707107   
     length 1.02446   
     axis -90 -45 1.62303e-014   XYZ
    dof rx rz
    limits (-45.0 45.0)
           (-45.0 45.0)
  end
:hierarchy
  begin
    root lhipjoint rhipjoint lowerback
    lhipjoint lfemur
    lfemur ltibia
    ltibia lfoot
    lfoot ltoes
    rhipjoint rfemur
    rfemur rtibia
    rtibia rfoot
    rfoot rtoes
    lowerback upperback
    upperback thorax
    thorax lowerneck lclavicle rclavicle
    lowerneck upperneck
    upperneck head
    lclavicle lhumerus
    lhumerus lradius
    lradius lwrist
    lwrist lhand lthumb
    lhand lfingers
    rclavicle rhumerus
    rhumerus rradius
    rradius rwrist
    rwrist rhand rthumb
    rhand rfingers
  end

#!OML:ASF F:\twosubjects\two\Thursday\Session 1\justin.ASF
:FULLY-SPECIFIED
:DEGREES
49
root 0.867431 18.7632 30.936 -173.023 -4.36708 183.046
lowerback 2.01632 -1.04029 0.871141
upperback 0.343015 -1.51799 4.16511
thorax -0.686913 -0.836529 3.83504
lowerneck -14.53 -6.98354 -12.3693
upperneck 31.7385 -11.8211 5.68386
head 14.4109 -6.77192 2.15756
rclavicle 8.74653e-015 -1.51076e-014
rhumerus -32.5925 -16.4074 -74.5898
rradius 29.8941
rwrist -5.22439
rhand -10.1945 11.6043
rfingers 7.12502
rthumb 15.7964 -17.7712
lclavicle 8.74653e-015 -1.51076e-014
lhumerus -31.8673 -3.55019 85.571
lradius 30.4157
lwrist -8.37984
lhand 2.57868 35.9552
lfingers 7.12502
lthumb 28.0579 63.8771
rfemur -21.8464 -3.09257 25.9264
rtibia 30.595
rfoot -13.555 -11.3452
rtoes -5.33933
lfemur -14.6425 3.26731 -14.904
ltibia 56.6387
lfoot 5.73095 -14.7799
ltoes -13.9926
50
root 0.865547 18.684 30.8228 -173.03 -4.29808 183.166
lowerback 1.76212 -0.949975 0.994652
upperback 0.535339 -1.41742 4.17741
thorax -0.355456 -0.79185 3.76649
lowerneck -14.4217 -7.07749 -12.4828
upperneck 31.6259 -11.9783 5.83385
head 14.3763 -6.82906 2.21281
rclavicle 2.34566e-014 -6.36111e-014
rhumerus -32.1297 -16.998 -74.4549
rradius 29.7651
rwrist -4.79955
rhand -9.67624 12.3381
rfingers 7.12502
rthumb 16.2954 -16.9972
lclavicle 2.34566e-014 -6.36111e-014
lhumerus -31.7887 -3.3264 85.5707
lradius 29.8706
lwrist -8.80095
lhand 2.92664 35.8031
lfingers 7.12502
lthumb 28.3905 63.6701
rfemur -21.5615 -3.18668 26.0982
rtibia 30.6922
rfoot -13.9291 -11.282
rtoes -5.71177
lfemur -14.4028 4.10446 -14.7621
ltibia 57.3255
lfoot 1.61615 -13.4751
ltoes -23.0019
51
root 0.864766 18.5951 30.7143 -173.001 -4.21938 183.052
lowerback 1.96222 -0.893818 0.872915
upperback 0.396397 -1.32367 4.1177
thorax -0.614655 -0.738802 3.77804
lowerneck -14.2517 -7.03632 -12.7157
upperneck 31.788 -12.0411 6.05393
head 14.4543 -6.88265 2.33002
rclavicle -5.36719e-015 1.98785e-014
rhumerus -32.2457 -17.1894 -74.228
rradius 29.8722
rwrist -4.79835
rhand -9.11145 12.6385
rfingers 7.12502
rthumb 16.8391 -16.6513
lclavicle -5.36719e-015 1.98785e-014
lhumerus -32.3822 -2.68933 85.4976
lradius 29.5306
lwrist -9.64539
lhand 3.06125 36.0526
lfingers 7.12502
lthumb 28.5191 63.898
rfemur -21.327 -3.15661 25.9868
rtibia 30.8064
rfoot -14.4442 -11.2583
rtoes -4.88954
lfemur -14.1163 4.799 -14.8697
ltibia 57.8913
lfoot -4.1241 -11.3242
ltoes -39.705
52
root 0.871376 18.6193 30.5722 -173.178 -4.34672 183.163
lowerback 2.16784 -0.871675 0.889365
upperback 0.414963 -1.29191 4.16062
thorax -0.712075 -0.724492 3.81703
lowerneck -14.1496 -7.03561 -12.8756
upperneck 31.7803 -12.0836 6.23325
head 14.4605 -6.90345 2.42442
rclavicle 3.598e-014 -1.03368e-014
rhumerus -32.1896 -16.7458 -74.3744
rradius 30.3248
rwrist -4.60033
rhand -10.1548 11.1366
rfingers 7.12502
rthumb 15.8346 -18.2359
lclavicle 3.598e-014 -1.03368e-014
lhumerus -32.6981 -2.28854 85.521
lradius 29.0785
lwrist -10.1046
lhand 3.39405 36.4564
lfingers 7.12502
lthumb 28.837 64.248
rfemur -20.7877 -3.01406 26.1168
rtibia 31.3821
rfoot -15.4342 -11.6411
rtoes -3.02692
lfemur -16.2987 4.29918 -14.4936
ltibia 57.5794
lfoot 1.73146 -11.5825
ltoes -25.5667
53
root 0.875281 18.6149 30.4356 -173.345 -4.4381 183.353
lowerback 2.06576 -0.799267 1.00688
upperback 0.601414 -1.21177 4.19554
thorax -0.469635 -0.69049 3.78005
lowerneck -14.0772 -7.18298 -12.9012
upperneck 31.7285 -12.3343 6.30589
head 14.4613 -7.00158 2.41319
rclavicle 1.42131e-014 -3.81667e-014
rhumerus -31.9889 -17.369 -73.9952
rradius 30.3548
rwrist -4.99923
rhand -9.20949 12.1313
rfingers 7.12502
rthumb 16.7448 -17.1666
lclavicle 1.42131e-014 -3.81667e-014
lhumerus -32.6502 -2.04536 85.5444
lradius 28.5599
lwrist -10.3126
lhand 3.66276 36.816
lfingers 7.12502
lthumb 29.0937 64.5636
rfemur -20.1334 -2.96873 26.3427
rtibia 31.5534
rfoot -16.0566 -11.8302
rtoes -3.926
lfemur -16.6797 4.83194 -14.0886
ltibia 57.9214
lfoot -0.246126 -10.2214
ltoes -25.586
54
root 0.873101 18.6168 30.3077 -173.328 -4.42655 183.239
lowerback 1.57523 -0.737537 0.890183
upperback 0.896154 -1.15582 4.10432
thorax 0.10487 -0.66534 3.73665
lowerneck -14.0603 -7.3361 -12.8401
upperneck 31.6515 -12.5782 6.33358
head 14.4514 -7.08553 2.36963
rclavicle 7.7526e-015 1.98785e-014
rhumerus -31.5089 -17.6123 -74.1061
rradius 30.5233
rwrist -4.95487
rhand -9.42065 12.5572
rfingers 7.12502
rthumb 16.5415 -16.7578
lclavicle 7.7526e-015 1.98785e-014
lhumerus -32.419 -1.51312 85.4295
lradius 28.0969
lwrist -10.6648
lhand 3.63608 36.8381
lfingers 7.12502
lthumb 29.0682 64.5901
rfemur -19.4577 -3.03515 26.2165
rtibia 31.1587
rfoot -16.3606 -11.5946
rtoes -5.30697
lfemur -17.6151 5.63088 -14.2684
ltibia 58.2461
lfoot -2.04706 -9.64358
ltoes -34.3156
55
root 0.876092 18.6181 30.1765 -173.381 -4.34467 183.201
lowerback 1.89329 -0.658597 0.741577
upperback 0.744756 -1.02993 4.08342
thorax -0.234241 -0.5971 3.80442
lowerneck -13.9751 -7.35104 -12.7903
upperneck 31.9411 -12.6578 6.08533
head 14.5476 -7.17122 2.24324
rclavicle -2.60408e-014 9.22361e-014
rhumerus -31.6476 -17.461 -74.0756
rradius 30.8213
rwrist -5.0014
rhand -10.0587 12.0534
rfingers 7.12502
rthumb 15.9272 -17.3117
lclavicle -2.60408e-014 9.22361e-014
lhumerus -32.9154 -0.812937 85.2816
lradius 27.7129
lwrist -11.1118
lhand 3.68035 36.5766
lfingers 7.12502
lthumb 29.1105 64.3213
rfemur -18.7675 -3.00038 26.1708
rtibia 30.947
rfoot -16.8501 -11.4019
rtoes -4.78323
lfemur -18.4296 5.17418 -13.8963
ltibia 58.6693
lfoot -1.18604 -8.17049
ltoes -27.9291
56
root 0.88373 18.6221 30.0381 -173.354 -3.98035 183.36
lowerback 1.89375 -0.515459 0.728871
upperback 0.706179 -0.83663 4.08037
thorax -0.285748 -0.499429 3.80507
lowerneck -13.986 -7.34031 -12.99
upperneck 32.2032 -12.7531 6.25651
head 14.7124 -7.23558 2.31985
rclavicle 3.67752e-015 4.45278e-014
rhumerus -31.5996 -17.3016 -74.1352
rradius 31.0445
rwrist -5.3407
rhand -10.4791 12.2228
rfingers 7.12502
rthumb 15.5223 -17.1742
lclavicle 3.67752e-015 4.45278e-014
lhumerus -33.2584 -0.165656 85.0266
lradius 27.4131
lwrist -11.3925
lhand 3.93948 36.4768
lfingers 7.12502
lthumb 29.3579 64.1784
rfemur -18.1768 -2.76611 26.3453
rtibia 30.8024
rfoot -17.122 -11.3535
rtoes -5.75779
lfemur -19.02 4.7516 -13.1463
ltibia 58.9589
lfoot -0.409589 -6.73664
ltoes -14.7594
57
root 0.885882 18.6195 29.9092 -173.266 -3.5748 183.337
lowerback 1.68905 -0.3656 0.614119
upperback 0.769209 -0.638215 3.97438
thorax -0.118586 -0.397692 3.75292
lowerneck -13.9557 -7.34363 -13.2019
upperneck 32.2636 -12.8837 6.6408
head 14.8016 -7.27811 2.48487
rclavicle -9.93923e-016 1.11319e-014
rhumerus -31.4101 -17.3602 -74.2756
rradius 31.2445
rwrist -5.5953
rhand -10.5439 13.296
rfingers 7.12502
rthumb 15.4598 -16.1058
lclavicle -9.93923e-016 1.11319e-014
lhumerus -33.414 0.191315 84.8282
lradius 27.1922
lwrist -11.4059
lhand 3.81382 36.5432
lfingers 7.12502
lthumb 29.2379 64.2658
rfemur -17.6997 -2.37022 26.3168
rtibia 30.6495
rfoot -17.1075 -11.5543
rtoes -8.11128
lfemur -19.7429 5.07796 -12.9303
ltibia 59.0864
lfoot -1.01322 -5.58141
ltoes -13.6347
